# xmcd
#
# Track frame offsets:
#	150
#	13165
#	28221
#	40927
#	53645
#	66094
#	79945
#	92551
#	107232
#	120654
#	135275
#	148811
#	161199
#	172428
#	184271
#	197947
#	210511
#	228627
#	249670
#	265015
#	279641
#	293592
#
# Disc length: 4087 seconds
#
# Revision: 1
# Processed by: cddbd v1.5.2PL0 Copyright (c) Steve Scherf et al.
# Submitted via: audiograbber 1.83.01
#
DISCID=500ff516
DTITLE=Percy Sledge - The Platinum Collection
DYEAR=2007
DGENRE=Soul
TTITLE0=When A Man Loves A Woman-1966
TTITLE1=Warm And Tender Love-1966
TTITLE2=It Tears Me Up-1966
TTITLE3=Try A Little Tenderness-1966
TTITLE4=The Dark End Of The Street-1966
TTITLE5=Take Time To Know Her-1966
TTITLE6=True Love Travels On A Gravel Road-1966
TTITLE7=Stop The World Tonight-1966
TTITLE8=It's All Wrong But It's Alright-1968
TTITLE9=Out Of Left Field-1966
TTITLE10=Cover Me-1966
TTITLE11=Put A Little Lovin' On Me-1966
TTITLE12=Love Me Like You Mean It-1966
TTITLE13=I'm Hanging Up My Heart For You-1966
TTITLE14=Bless Your Sweet Little Soul-1968
TTITLE15=Sudden Stop-1966
TTITLE16=Drown In My Tears-1967
TTITLE17=Kind Woman-1966
TTITLE18=Push Mr. Pride Aside-1971
TTITLE19=It Can't Be Stopped-1967
TTITLE20=Love Me Tender-1966
TTITLE21=Rainbow Road-1971
EXTD=
EXTT0=
EXTT1=
EXTT2=
EXTT3=
EXTT4=
EXTT5=
EXTT6=
EXTT7=
EXTT8=
EXTT9=
EXTT10=
EXTT11=
EXTT12=
EXTT13=
EXTT14=
EXTT15=
EXTT16=
EXTT17=
EXTT18=
EXTT19=
EXTT20=
EXTT21=
PLAYORDER=
